{
  "accessors": [
    {
      "bufferView": 2,
      "componentType": 5126,
      "count": 760,
      "max": [
        53.200000762939453,
        45,
        150
      ],
      "min": [
        -53.200000762939453,
        0,
        -253.20428466796875
      ],
      "type": "VEC3"
    },
    {
      "bufferView": 2,
      "byteOffset": 9120,
      "componentType": 5126,
      "count": 760,
      "max": [
        1,
        0,
        1
      ],
      "min": [
        -1,
        0,
        -1
      ],
      "type": "VEC3"
    },
    {
      "bufferView": 1,
      "componentType": 5126,
      "count": 760,
      "max": [
        0.99871373176574707,
        0.99536597728729248
      ],
      "min": [
        0.48844107985496521,
        0.48489922285079956
      ],
      "type": "VEC2"
    },
    {
      "bufferView": 0,
      "componentType": 5125,
      "count": 2160,
      "max": [
        759
      ],
      "min": [
        0
      ],
      "type": "SCALAR"
    },
    {
      "bufferView": 2,
      "byteOffset": 18240,
      "componentType": 5126,
      "count": 30,
      "max": [
        34.11572265625,
        70.0760498046875,
        202.11898803710938
      ],
      "min": [
        -34.11572265625,
        52.598178863525391,
        -202.11898803710938
      ],
      "type": "VEC3"
    },
    {
      "bufferView": 2,
      "byteOffset": 18600,
      "componentType": 5126,
      "count": 30,
      "max": [
        0.55338782072067261,
        0,
        1
      ],
      "min": [
        -0.55338788032531738,
        -1,
        -1
      ],
      "type": "VEC3"
    },
    {
      "bufferView": 1,
      "byteOffset": 6080,
      "componentType": 5126,
      "count": 30,
      "max": [
        0.26554268598556519,
        0.99800807237625122
      ],
      "min": [
        0.00053002539789304137,
        0.0019920321647077799
      ],
      "type": "VEC2"
    },
    {
      "bufferView": 0,
      "byteOffset": 8640,
      "componentType": 5125,
      "count": 54,
      "max": [
        29
      ],
      "min": [
        0
      ],
      "type": "SCALAR"
    },
    {
      "bufferView": 2,
      "byteOffset": 18960,
      "componentType": 5126,
      "count": 2010,
      "max": [
        37.5,
        71.046096801757812,
        202.74656677246094
      ],
      "min": [
        -37.5,
        45,
        -202.79425048828125
      ],
      "type": "VEC3"
    },
    {
      "bufferView": 2,
      "byteOffset": 43080,
      "componentType": 5126,
      "count": 2010,
      "max": [
        1,
        1,
        1
      ],
      "min": [
        -1,
        -1,
        -1
      ],
      "type": "VEC3"
    },
    {
      "bufferView": 1,
      "byteOffset": 6320,
      "componentType": 5126,
      "count": 2010,
      "max": [
        0.99553406238555908,
        0.44489261507987976
      ],
      "min": [
        0.48986899852752686,
        0.0031741736456751823
      ],
      "type": "VEC2"
    },
    {
      "bufferView": 0,
      "byteOffset": 8856,
      "componentType": 5125,
      "count": 3120,
      "max": [
        2009
      ],
      "min": [
        0
      ],
      "type": "SCALAR"
    },
    {
      "bufferView": 2,
      "byteOffset": 67200,
      "componentType": 5126,
      "count": 4,
      "max": [
        76.247222900390625,
        45,
        201.60214233398438
      ],
      "min": [
        76.247222900390625,
        0,
        -201.60214233398438
      ],
      "type": "VEC3"
    },
    {
      "bufferView": 2,
      "byteOffset": 67248,
      "componentType": 5126,
      "count": 4,
      "max": [
        -1,
        0,
        0
      ],
      "min": [
        -1,
        0,
        0
      ],
      "type": "VEC3"
    },
    {
      "bufferView": 1,
      "byteOffset": 22400,
      "componentType": 5126,
      "count": 4,
      "max": [
        0.79610323905944824,
        0.90038484334945679
      ],
      "min": [
        0.0037754187360405922,
        0.81195628643035889
      ],
      "type": "VEC2"
    },
    {
      "bufferView": 0,
      "byteOffset": 21336,
      "componentType": 5125,
      "count": 6,
      "max": [
        3
      ],
      "min": [
        0
      ],
      "type": "SCALAR"
    },
    {
      "bufferView": 2,
      "byteOffset": 67296,
      "componentType": 5126,
      "count": 4,
      "max": [
        -76.247222900390625,
        45,
        201.60214233398438
      ],
      "min": [
        -76.247222900390625,
        0,
        -201.60214233398438
      ],
      "type": "VEC3"
    },
    {
      "bufferView": 2,
      "byteOffset": 67344,
      "componentType": 5126,
      "count": 4,
      "max": [
        1,
        0,
        0
      ],
      "min": [
        1,
        0,
        0
      ],
      "type": "VEC3"
    },
    {
      "bufferView": 1,
      "byteOffset": 22432,
      "componentType": 5126,
      "count": 4,
      "max": [
        0.79610311985015869,
        0.99768340587615967
      ],
      "min": [
        0.0037753582000732422,
        0.90925478935241699
      ],
      "type": "VEC2"
    },
    {
      "bufferView": 0,
      "byteOffset": 21360,
      "componentType": 5125,
      "count": 6,
      "max": [
        3
      ],
      "min": [
        0
      ],
      "type": "SCALAR"
    },
    {
      "bufferView": 2,
      "byteOffset": 67392,
      "componentType": 5126,
      "count": 4,
      "max": [
        76.247222900390625,
        0,
        201.60215759277344
      ],
      "min": [
        -76.247222900390625,
        0,
        -201.60215759277344
      ],
      "type": "VEC3"
    },
    {
      "bufferView": 2,
      "byteOffset": 67440,
      "componentType": 5126,
      "count": 4,
      "max": [
        0,
        1,
        0
      ],
      "min": [
        0,
        1,
        0
      ],
      "type": "VEC3"
    },
    {
      "bufferView": 1,
      "byteOffset": 22464,
      "componentType": 5126,
      "count": 4,
      "max": [
        0.30343887209892273,
        0.79562896490097046
      ],
      "min": [
        0.0037754178047180176,
        0.0033013855572789907
      ],
      "type": "VEC2"
    },
    {
      "bufferView": 0,
      "byteOffset": 21384,
      "componentType": 5125,
      "count": 6,
      "max": [
        3
      ],
      "min": [
        0
      ],
      "type": "SCALAR"
    },
    {
      "bufferView": 2,
      "byteOffset": 67488,
      "componentType": 5126,
      "count": 8,
      "max": [
        76.247222900390625,
        45,
        201.60215759277344
      ],
      "min": [
        -76.247222900390625,
        45,
        -201.60215759277344
      ],
      "type": "VEC3"
    },
    {
      "bufferView": 2,
      "byteOffset": 67584,
      "componentType": 5126,
      "count": 8,
      "max": [
        0,
        -1,
        0
      ],
      "min": [
        0,
        -1,
        0
      ],
      "type": "VEC3"
    },
    {
      "bufferView": 1,
      "byteOffset": 22496,
      "componentType": 5126,
      "count": 8,
      "max": [
        0.48187443614006042,
        0.79562890529632568
      ],
      "min": [
        0.31976640224456787,
        0.0033012628555297852
      ],
      "type": "VEC2"
    },
    {
      "bufferView": 0,
      "byteOffset": 21408,
      "componentType": 5125,
      "count": 12,
      "max": [
        7
      ],
      "min": [
        0
      ],
      "type": "SCALAR"
    },
    {
      "bufferView": 2,
      "byteOffset": 67680,
      "componentType": 5126,
      "count": 8,
      "max": [
        76.247222900390625,
        45,
        201.60214233398438
      ],
      "min": [
        -76.247222900390625,
        0,
        -201.60214233398438
      ],
      "type": "VEC3"
    },
    {
      "bufferView": 2,
      "byteOffset": 67776,
      "componentType": 5126,
      "count": 8,
      "max": [
        0,
        0,
        1
      ],
      "min": [
        0,
        0,
        -1
      ],
      "type": "VEC3"
    },
    {
      "bufferView": 1,
      "byteOffset": 22560,
      "componentType": 5126,
      "count": 8,
      "max": [
        0.79610335826873779,
        0.79990440607070923
      ],
      "min": [
        0.49643957614898682,
        0.61670362949371338
      ],
      "type": "VEC2"
    },
    {
      "bufferView": 0,
      "byteOffset": 21456,
      "componentType": 5125,
      "count": 12,
      "max": [
        7
      ],
      "min": [
        0
      ],
      "type": "SCALAR"
    }
  ],
  "asset": {
    "extras": {
      "author": "BehNaM (https://sketchfab.com/GbehnamG)",
      "license": "SKETCHFAB Standard (https://sketchfab.com/licenses)",
      "source": "https://sketchfab.com/3d-models/vr-modern-skylight-art-gallery-scene-2020-ee90a90689614ba29891010b4ef517de",
      "title": "VR Modern Skylight Art Gallery Scene 2020"
    },
    "generator": "Sketchfab-9.75.0",
    "version": "2.0"
  },
  "bufferViews": [
    {
      "buffer": 0,
      "byteLength": 21504,
      "byteOffset": 0,
      "name": "floatBufferViews",
      "target": 34963
    },
    {
      "buffer": 0,
      "byteLength": 22624,
      "byteOffset": 21504,
      "byteStride": 8,
      "name": "floatBufferViews",
      "target": 34962
    },
    {
      "buffer": 0,
      "byteLength": 67872,
      "byteOffset": 44128,
      "byteStride": 12,
      "name": "floatBufferViews",
      "target": 34962
    }
  ],
  "buffers": [
    {
      "byteLength": 112000,
      "uri": "scene.bin"
    }
  ],
  "extensionsRequired": [
    "KHR_materials_pbrSpecularGlossiness"
  ],
  "extensionsUsed": [
    "KHR_materials_pbrSpecularGlossiness"
  ],
  "images": [
    {
      "uri": "textures/lambert23_specularGlossiness.jpeg"
    },
    {
      "uri": "textures/lambert23_occlusion.png"
    }
  ],
  "materials": [
    {
      "doubleSided": true,
      "emissiveFactor": [
        0.30275161712792409,
        0.30275161712792409,
        0.30275161712792409
      ],
      "extensions": {
        "KHR_materials_pbrSpecularGlossiness": {
          "diffuseFactor": [
            1,
            0.88792311788196632,
            0.7605245046752922,
            1
          ],
          "glossinessFactor": 0,
          "specularFactor": [
            1,
            1,
            1
          ],
          "specularGlossinessTexture": {
            "index": 0,
            "texCoord": 0
          }
        }
      },
      "name": "lambert23",
      "occlusionTexture": {
        "index": 1,
        "strength": 1,
        "texCoord": 0
      }
    },
    {
      "alphaMode": "BLEND",
      "doubleSided": true,
      "emissiveFactor": [
        0.28264701086917676,
        0.60211424707357386,
        0.80114556877338572
      ],
      "extensions": {
        "KHR_materials_pbrSpecularGlossiness": {
          "diffuseFactor": [
            0.5,
            0.5,
            0.5,
            0.33611957268543008
          ],
          "glossinessFactor": 1,
          "specularFactor": [
            1,
            1,
            1
          ]
        }
      },
      "name": "lambert27"
    },
    {
      "doubleSided": true,
      "emissiveFactor": [
        0.46891034367963436,
        0.46891034367963436,
        0.46891034367963436
      ],
      "extensions": {
        "KHR_materials_pbrSpecularGlossiness": {
          "diffuseFactor": [
            1,
            1,
            1,
            1
          ],
          "glossinessFactor": 0,
          "specularFactor": [
            1,
            1,
            1
          ],
          "specularGlossinessTexture": {
            "index": 0,
            "texCoord": 0
          }
        }
      },
      "name": "lambert26",
      "occlusionTexture": {
        "index": 1,
        "strength": 1,
        "texCoord": 0
      }
    },
    {
      "doubleSided": false,
      "emissiveFactor": [
        0.30275161712792409,
        0.30275161712792409,
        0.30275161712792409
      ],
      "extensions": {
        "KHR_materials_pbrSpecularGlossiness": {
          "diffuseFactor": [
            1,
            0.88792311788196632,
            0.7605245046752922,
            1
          ],
          "glossinessFactor": 0,
          "specularFactor": [
            1,
            1,
            1
          ],
          "specularGlossinessTexture": {
            "index": 0,
            "texCoord": 0
          }
        }
      },
      "name": "lambert21",
      "occlusionTexture": {
        "index": 1,
        "strength": 1,
        "texCoord": 0
      }
    },
    {
      "doubleSided": false,
      "emissiveFactor": [
        0.30275161712792409,
        0.30275161712792409,
        0.30275161712792409
      ],
      "extensions": {
        "KHR_materials_pbrSpecularGlossiness": {
          "diffuseFactor": [
            1,
            0.88792311788196632,
            0.7605245046752922,
            1
          ],
          "glossinessFactor": 0,
          "specularFactor": [
            1,
            1,
            1
          ],
          "specularGlossinessTexture": {
            "index": 0,
            "texCoord": 0
          }
        }
      },
      "name": "lambert22",
      "occlusionTexture": {
        "index": 1,
        "strength": 1,
        "texCoord": 0
      }
    },
    {
      "doubleSided": false,
      "emissiveFactor": [
        0.17300092407309947,
        0.17300092407309947,
        0.17300092407309947
      ],
      "extensions": {
        "KHR_materials_pbrSpecularGlossiness": {
          "diffuseFactor": [
            0.44672920812723993,
            0.40086555807260782,
            0.34835367972352482,
            1
          ],
          "glossinessFactor": 0.28690969118800502,
          "specularFactor": [
            1,
            1,
            1
          ],
          "specularGlossinessTexture": {
            "index": 0,
            "texCoord": 0
          }
        }
      },
      "name": "lambert20",
      "occlusionTexture": {
        "index": 1,
        "strength": 1,
        "texCoord": 0
      }
    },
    {
      "doubleSided": false,
      "emissiveFactor": [
        0.25950138610964923,
        0.25950138610964923,
        0.25950138610964923
      ],
      "extensions": {
        "KHR_materials_pbrSpecularGlossiness": {
          "diffuseFactor": [
            1,
            0.88792311788196632,
            0.7605245046752922,
            1
          ],
          "glossinessFactor": 0,
          "specularFactor": [
            1,
            1,
            1
          ],
          "specularGlossinessTexture": {
            "index": 0,
            "texCoord": 0
          }
        }
      },
      "name": "lambert25",
      "occlusionTexture": {
        "index": 1,
        "strength": 1,
        "texCoord": 0
      }
    },
    {
      "doubleSided": false,
      "emissiveFactor": [
        0.30275161712792409,
        0.30275161712792409,
        0.30275161712792409
      ],
      "extensions": {
        "KHR_materials_pbrSpecularGlossiness": {
          "diffuseFactor": [
            1,
            0.88792311788196632,
            0.7605245046752922,
            1
          ],
          "glossinessFactor": 0,
          "specularFactor": [
            1,
            1,
            1
          ],
          "specularGlossinessTexture": {
            "index": 0,
            "texCoord": 0
          }
        }
      },
      "name": "lambert24",
      "occlusionTexture": {
        "index": 1,
        "strength": 1,
        "texCoord": 0
      }
    }
  ],
  "meshes": [
    {
      "name": "pCylinder13_lambert23_0",
      "primitives": [
        {
          "attributes": {
            "NORMAL": 1,
            "POSITION": 0,
            "TEXCOORD_0": 2
          },
          "indices": 3,
          "material": 0,
          "mode": 4
        }
      ]
    },
    {
      "name": "pPlane6_lambert27_0",
      "primitives": [
        {
          "attributes": {
            "NORMAL": 5,
            "POSITION": 4,
            "TEXCOORD_0": 6
          },
          "indices": 7,
          "material": 1,
          "mode": 4
        }
      ]
    },
    {
      "name": "polySurface132_lambert26_0",
      "primitives": [
        {
          "attributes": {
            "NORMAL": 9,
            "POSITION": 8,
            "TEXCOORD_0": 10
          },
          "indices": 11,
          "material": 2,
          "mode": 4
        }
      ]
    },
    {
      "name": "polySurface134_lambert21_0",
      "primitives": [
        {
          "attributes": {
            "NORMAL": 13,
            "POSITION": 12,
            "TEXCOORD_0": 14
          },
          "indices": 15,
          "material": 3,
          "mode": 4
        }
      ]
    },
    {
      "name": "polySurface135_lambert22_0",
      "primitives": [
        {
          "attributes": {
            "NORMAL": 17,
            "POSITION": 16,
            "TEXCOORD_0": 18
          },
          "indices": 19,
          "material": 4,
          "mode": 4
        }
      ]
    },
    {
      "name": "polySurface136_lambert20_0",
      "primitives": [
        {
          "attributes": {
            "NORMAL": 21,
            "POSITION": 20,
            "TEXCOORD_0": 22
          },
          "indices": 23,
          "material": 5,
          "mode": 4
        }
      ]
    },
    {
      "name": "polySurface137_lambert25_0",
      "primitives": [
        {
          "attributes": {
            "NORMAL": 25,
            "POSITION": 24,
            "TEXCOORD_0": 26
          },
          "indices": 27,
          "material": 6,
          "mode": 4
        }
      ]
    },
    {
      "name": "polySurface133_lambert24_0",
      "primitives": [
        {
          "attributes": {
            "NORMAL": 29,
            "POSITION": 28,
            "TEXCOORD_0": 30
          },
          "indices": 31,
          "material": 7,
          "mode": 4
        }
      ]
    }
  ],
  "nodes": [
    {
      "children": [
        1
      ],
      "name": "RootNode (gltf orientation matrix)",
      "rotation": [
        -0.70710678118654746,
        -0,
        -0,
        0.70710678118654757
      ]
    },
    {
      "children": [
        2
      ],
      "matrix": [
        0.097885243594646454,
        0,
        0,
        0,
        0,
        0.097885243594646454,
        0,
        0,
        0,
        0,
        0.097885243594646454,
        0,
        0,
        0,
        0,
        1
      ],
      "name": "RootNode (model correction matrix)"
    },
    {
      "children": [
        3
      ],
      "matrix": [
        1,
        0,
        0,
        0,
        0,
        0,
        1,
        0,
        0,
        -1,
        0,
        0,
        0,
        0,
        0,
        1
      ],
      "name": "8908d4cfbce04d3e8ec172016d5133ee.fbx"
    },
    {
      "children": [
        4,
        6,
        8,
        10,
        17,
        19
      ],
      "name": "RootNode"
    },
    {
      "children": [
        5
      ],
      "matrix": [
        1,
        0,
        0,
        0,
        0,
        1,
        0,
        0,
        0,
        0,
        1,
        0,
        0,
        0,
        51.602184295654297,
        1
      ],
      "name": "pCylinder13"
    },
    {
      "mesh": 0,
      "name": "pCylinder13_lambert23_0"
    },
    {
      "children": [
        7
      ],
      "name": "pPlane6"
    },
    {
      "mesh": 1,
      "name": "pPlane6_lambert27_0"
    },
    {
      "children": [
        9
      ],
      "name": "polySurface132"
    },
    {
      "mesh": 2,
      "name": "polySurface132_lambert26_0"
    },
    {
      "children": [
        11,
        13,
        15
      ],
      "name": "polySurface20"
    },
    {
      "children": [
        12
      ],
      "name": "polySurface134"
    },
    {
      "mesh": 3,
      "name": "polySurface134_lambert21_0"
    },
    {
      "children": [
        14
      ],
      "name": "polySurface135"
    },
    {
      "mesh": 4,
      "name": "polySurface135_lambert22_0"
    },
    {
      "children": [
        16
      ],
      "name": "polySurface136"
    },
    {
      "mesh": 5,
      "name": "polySurface136_lambert20_0"
    },
    {
      "children": [
        18
      ],
      "name": "polySurface137"
    },
    {
      "mesh": 6,
      "name": "polySurface137_lambert25_0"
    },
    {
      "children": [
        20
      ],
      "name": "polySurface133"
    },
    {
      "mesh": 7,
      "name": "polySurface133_lambert24_0"
    }
  ],
  "samplers": [
    {
      "magFilter": 9729,
      "minFilter": 9987,
      "wrapS": 10497,
      "wrapT": 10497
    }
  ],
  "scene": 0,
  "scenes": [
    {
      "name": "OSG_Scene",
      "nodes": [
        0
      ]
    }
  ],
  "textures": [
    {
      "sampler": 0,
      "source": 0
    },
    {
      "sampler": 0,
      "source": 1
    }
  ]
}

