{
  "accessors": [
    {
      "bufferView": 2,
      "componentType": 5126,
      "count": 1385,
      "max": [
        0.46317264437675476,
        0.97916728258132935,
        0.0016398390289396048
      ],
      "min": [
        -0.46317267417907715,
        -0.97916710376739502,
        0
      ],
      "type": "VEC3"
    },
    {
      "bufferView": 2,
      "byteOffset": 16620,
      "componentType": 5126,
      "count": 1385,
      "max": [
        0.11353079229593277,
        0.054293867200613022,
        -0.99229830503463745
      ],
      "min": [
        -0.11353079229593277,
        -0.054293867200613022,
        -1
      ],
      "type": "VEC3"
    },
    {
      "bufferView": 1,
      "componentType": 5126,
      "count": 1385,
      "max": [
        1.0000001192092896,
        1.0000001192092896
      ],
      "min": [
        0,
        0
      ],
      "type": "VEC2"
    },
    {
      "bufferView": 0,
      "componentType": 5125,
      "count": 7671,
      "max": [
        1384
      ],
      "min": [
        0
      ],
      "type": "SCALAR"
    },
    {
      "bufferView": 2,
      "byteOffset": 33240,
      "componentType": 5126,
      "count": 2554,
      "max": [
        0.47056367993354797,
        0.99479186534881592,
        0.0065593570470809937
      ],
      "min": [
        -0.47056367993354797,
        -0.99479186534881592,
        0.00109321647323668
      ],
      "type": "VEC3"
    },
    {
      "bufferView": 2,
      "byteOffset": 63888,
      "componentType": 5126,
      "count": 2554,
      "max": [
        1,
        1,
        1
      ],
      "min": [
        -1,
        -1,
        -0.99854332208633423
      ],
      "type": "VEC3"
    },
    {
      "bufferView": 1,
      "byteOffset": 11080,
      "componentType": 5126,
      "count": 2554,
      "max": [
        1.0171343088150024,
        1.0165165662765503
      ],
      "min": [
        -0.029987715184688568,
        -0.030605671927332878
      ],
      "type": "VEC2"
    },
    {
      "bufferView": 0,
      "byteOffset": 30684,
      "componentType": 5125,
      "count": 14445,
      "max": [
        2553
      ],
      "min": [
        0
      ],
      "type": "SCALAR"
    },
    {
      "bufferView": 2,
      "byteOffset": 94536,
      "componentType": 5126,
      "count": 1385,
      "max": [
        0.46317264437675476,
        0.97916728258132935,
        0.0016398390289396048
      ],
      "min": [
        -0.46317267417907715,
        -0.97916710376739502,
        0
      ],
      "type": "VEC3"
    },
    {
      "bufferView": 2,
      "byteOffset": 111156,
      "componentType": 5126,
      "count": 1385,
      "max": [
        0.11353079229593277,
        0.054293867200613022,
        -0.99229830503463745
      ],
      "min": [
        -0.11353079229593277,
        -0.054293867200613022,
        -1
      ],
      "type": "VEC3"
    },
    {
      "bufferView": 1,
      "byteOffset": 31512,
      "componentType": 5126,
      "count": 1385,
      "max": [
        1.0000001192092896,
        1.0000001192092896
      ],
      "min": [
        0,
        0
      ],
      "type": "VEC2"
    },
    {
      "bufferView": 0,
      "byteOffset": 88464,
      "componentType": 5125,
      "count": 7671,
      "max": [
        1384
      ],
      "min": [
        0
      ],
      "type": "SCALAR"
    },
    {
      "bufferView": 2,
      "byteOffset": 127776,
      "componentType": 5126,
      "count": 2555,
      "max": [
        0.47056367993354797,
        0.99479186534881592,
        0.0065593570470809937
      ],
      "min": [
        -0.47056367993354797,
        -0.99479186534881592,
        0.00109321647323668
      ],
      "type": "VEC3"
    },
    {
      "bufferView": 2,
      "byteOffset": 158436,
      "componentType": 5126,
      "count": 2555,
      "max": [
        1,
        1,
        1
      ],
      "min": [
        -1,
        -1,
        -0.99854332208633423
      ],
      "type": "VEC3"
    },
    {
      "bufferView": 1,
      "byteOffset": 42592,
      "componentType": 5126,
      "count": 2555,
      "max": [
        1.0171343088150024,
        1.0165165662765503
      ],
      "min": [
        -0.029987715184688568,
        -0.030605671927332878
      ],
      "type": "VEC2"
    },
    {
      "bufferView": 0,
      "byteOffset": 119148,
      "componentType": 5125,
      "count": 14445,
      "max": [
        2554
      ],
      "min": [
        0
      ],
      "type": "SCALAR"
    },
    {
      "bufferView": 2,
      "byteOffset": 189096,
      "componentType": 5126,
      "count": 1385,
      "max": [
        0.46317264437675476,
        0.97916728258132935,
        0.0016398390289396048
      ],
      "min": [
        -0.46317267417907715,
        -0.97916710376739502,
        0
      ],
      "type": "VEC3"
    },
    {
      "bufferView": 2,
      "byteOffset": 205716,
      "componentType": 5126,
      "count": 1385,
      "max": [
        0.11353079229593277,
        0.054293867200613022,
        -0.99229830503463745
      ],
      "min": [
        -0.11353079229593277,
        -0.054293867200613022,
        -1
      ],
      "type": "VEC3"
    },
    {
      "bufferView": 1,
      "byteOffset": 63032,
      "componentType": 5126,
      "count": 1385,
      "max": [
        1.0000001192092896,
        1.0000001192092896
      ],
      "min": [
        0,
        0
      ],
      "type": "VEC2"
    },
    {
      "bufferView": 0,
      "byteOffset": 176928,
      "componentType": 5125,
      "count": 7671,
      "max": [
        1384
      ],
      "min": [
        0
      ],
      "type": "SCALAR"
    },
    {
      "bufferView": 2,
      "byteOffset": 222336,
      "componentType": 5126,
      "count": 2555,
      "max": [
        0.47056367993354797,
        0.99479186534881592,
        0.0065593570470809937
      ],
      "min": [
        -0.47056367993354797,
        -0.99479186534881592,
        0.00109321647323668
      ],
      "type": "VEC3"
    },
    {
      "bufferView": 2,
      "byteOffset": 252996,
      "componentType": 5126,
      "count": 2555,
      "max": [
        1,
        1,
        1
      ],
      "min": [
        -1,
        -1,
        -0.99854332208633423
      ],
      "type": "VEC3"
    },
    {
      "bufferView": 1,
      "byteOffset": 74112,
      "componentType": 5126,
      "count": 2555,
      "max": [
        1.0171343088150024,
        1.0165165662765503
      ],
      "min": [
        -0.029987715184688568,
        -0.030605671927332878
      ],
      "type": "VEC2"
    },
    {
      "bufferView": 0,
      "byteOffset": 207612,
      "componentType": 5125,
      "count": 14445,
      "max": [
        2554
      ],
      "min": [
        0
      ],
      "type": "SCALAR"
    },
    {
      "bufferView": 2,
      "byteOffset": 283656,
      "componentType": 5126,
      "count": 1385,
      "max": [
        0.46317264437675476,
        0.97916728258132935,
        0.0016398390289396048
      ],
      "min": [
        -0.46317267417907715,
        -0.97916710376739502,
        0
      ],
      "type": "VEC3"
    },
    {
      "bufferView": 2,
      "byteOffset": 300276,
      "componentType": 5126,
      "count": 1385,
      "max": [
        0.11353079229593277,
        0.054293867200613022,
        -0.99229830503463745
      ],
      "min": [
        -0.11353079229593277,
        -0.054293867200613022,
        -1
      ],
      "type": "VEC3"
    },
    {
      "bufferView": 1,
      "byteOffset": 94552,
      "componentType": 5126,
      "count": 1385,
      "max": [
        1.0000001192092896,
        1.0000001192092896
      ],
      "min": [
        0,
        0
      ],
      "type": "VEC2"
    },
    {
      "bufferView": 0,
      "byteOffset": 265392,
      "componentType": 5125,
      "count": 7671,
      "max": [
        1384
      ],
      "min": [
        0
      ],
      "type": "SCALAR"
    },
    {
      "bufferView": 2,
      "byteOffset": 316896,
      "componentType": 5126,
      "count": 2544,
      "max": [
        0.47056367993354797,
        0.99479186534881592,
        0.0065593570470809937
      ],
      "min": [
        -0.47056367993354797,
        -0.99479186534881592,
        0.00109321647323668
      ],
      "type": "VEC3"
    },
    {
      "bufferView": 2,
      "byteOffset": 347424,
      "componentType": 5126,
      "count": 2544,
      "max": [
        1,
        1,
        1
      ],
      "min": [
        -1,
        -1,
        -0.99854332208633423
      ],
      "type": "VEC3"
    },
    {
      "bufferView": 1,
      "byteOffset": 105632,
      "componentType": 5126,
      "count": 2544,
      "max": [
        0.97346889972686768,
        0.97346895933151245
      ],
      "min": [
        0.026531191542744637,
        0.026531204581260681
      ],
      "type": "VEC2"
    },
    {
      "bufferView": 0,
      "byteOffset": 296076,
      "componentType": 5125,
      "count": 14445,
      "max": [
        2543
      ],
      "min": [
        0
      ],
      "type": "SCALAR"
    }
  ],
  "asset": {
    "extras": {
      "author": "Šimon Ustal (https://sketchfab.com/simonustal)",
      "license": "CC-BY-4.0 (http://creativecommons.org/licenses/by/4.0/)",
      "source": "https://sketchfab.com/3d-models/playing-cards-8137a484e0b640cf9f30e34be44bff55",
      "title": "Playing Cards"
    },
    "generator": "Sketchfab-9.80.0",
    "version": "2.0"
  },
  "bufferViews": [
    {
      "buffer": 0,
      "byteLength": 353856,
      "byteOffset": 0,
      "name": "floatBufferViews",
      "target": 34963
    },
    {
      "buffer": 0,
      "byteLength": 125984,
      "byteOffset": 353856,
      "byteStride": 8,
      "name": "floatBufferViews",
      "target": 34962
    },
    {
      "buffer": 0,
      "byteLength": 377952,
      "byteOffset": 479840,
      "byteStride": 12,
      "name": "floatBufferViews",
      "target": 34962
    }
  ],
  "buffers": [
    {
      "byteLength": 857792,
      "uri": "scene.bin"
    }
  ],
  "images": [
    {
      "uri": "textures/Material.002_baseColor.png"
    },
    {
      "uri": "textures/Material.002_metallicRoughness.png"
    },
    {
      "uri": "textures/Material.001_baseColor.png"
    },
    {
      "uri": "textures/Material.001_metallicRoughness.png"
    },
    {
      "uri": "textures/Material.003_baseColor.png"
    },
    {
      "uri": "textures/Material.003_metallicRoughness.png"
    },
    {
      "uri": "textures/Material.004_baseColor.png"
    },
    {
      "uri": "textures/Material.004_metallicRoughness.png"
    },
    {
      "uri": "textures/material_0_baseColor.png"
    },
    {
      "uri": "textures/material_0_metallicRoughness.png"
    }
  ],
  "materials": [
    {
      "doubleSided": true,
      "emissiveFactor": [
        0,
        0,
        0
      ],
      "name": "Material.002",
      "occlusionTexture": {
        "index": 1,
        "strength": 0.10000000000000001,
        "texCoord": 0
      },
      "pbrMetallicRoughness": {
        "baseColorFactor": [
          1,
          1,
          1,
          1
        ],
        "baseColorTexture": {
          "index": 0,
          "texCoord": 0
        },
        "metallicFactor": 0.1841152436021378,
        "metallicRoughnessTexture": {
          "index": 1,
          "texCoord": 0
        },
        "roughnessFactor": 0.69428129313122833
      }
    },
    {
      "doubleSided": true,
      "emissiveFactor": [
        0,
        0,
        0
      ],
      "name": "Material.001",
      "occlusionTexture": {
        "index": 3,
        "strength": 1,
        "texCoord": 0
      },
      "pbrMetallicRoughness": {
        "baseColorFactor": [
          1,
          1,
          1,
          1
        ],
        "baseColorTexture": {
          "index": 2,
          "texCoord": 0
        },
        "metallicFactor": 0.1050729924788258,
        "metallicRoughnessTexture": {
          "index": 3,
          "texCoord": 0
        },
        "roughnessFactor": 0.67604077364123327
      }
    },
    {
      "doubleSided": true,
      "emissiveFactor": [
        0,
        0,
        0
      ],
      "name": "Material.003",
      "occlusionTexture": {
        "index": 5,
        "strength": 1,
        "texCoord": 0
      },
      "pbrMetallicRoughness": {
        "baseColorFactor": [
          1,
          1,
          1,
          1
        ],
        "baseColorTexture": {
          "index": 4,
          "texCoord": 0
        },
        "metallicFactor": 0.1901954167654695,
        "metallicRoughnessTexture": {
          "index": 5,
          "texCoord": 0
        },
        "roughnessFactor": 0.59091834935458953
      }
    },
    {
      "doubleSided": true,
      "emissiveFactor": [
        0,
        0,
        0
      ],
      "name": "Material.004",
      "occlusionTexture": {
        "index": 7,
        "strength": 1,
        "texCoord": 0
      },
      "pbrMetallicRoughness": {
        "baseColorFactor": [
          1,
          1,
          1,
          1
        ],
        "baseColorTexture": {
          "index": 6,
          "texCoord": 0
        },
        "metallicFactor": 0.14155403145881595,
        "metallicRoughnessTexture": {
          "index": 7,
          "texCoord": 0
        },
        "roughnessFactor": 0.62131921517124811
      }
    },
    {
      "doubleSided": true,
      "emissiveFactor": [
        0,
        0,
        0
      ],
      "name": "Material.005",
      "occlusionTexture": {
        "index": 1,
        "strength": 0.10000000000000001,
        "texCoord": 0
      },
      "pbrMetallicRoughness": {
        "baseColorFactor": [
          1,
          1,
          1,
          1
        ],
        "baseColorTexture": {
          "index": 0,
          "texCoord": 0
        },
        "metallicFactor": 0.1841152436021378,
        "metallicRoughnessTexture": {
          "index": 1,
          "texCoord": 0
        },
        "roughnessFactor": 0.65780025415123822
      }
    },
    {
      "doubleSided": true,
      "emissiveFactor": [
        0,
        0,
        0
      ],
      "name": "material_0",
      "occlusionTexture": {
        "index": 9,
        "strength": 1,
        "texCoord": 0
      },
      "pbrMetallicRoughness": {
        "baseColorFactor": [
          1,
          1,
          1,
          1
        ],
        "baseColorTexture": {
          "index": 8,
          "texCoord": 0
        },
        "metallicFactor": 0.19627558992880118,
        "metallicRoughnessTexture": {
          "index": 9,
          "texCoord": 0
        },
        "roughnessFactor": 0.6334795614979114
      }
    }
  ],
  "meshes": [
    {
      "name": "Plane_Material.002_0",
      "primitives": [
        {
          "attributes": {
            "NORMAL": 1,
            "POSITION": 0,
            "TEXCOORD_0": 2
          },
          "indices": 3,
          "material": 0,
          "mode": 4
        }
      ]
    },
    {
      "name": "Plane_Material.001_0",
      "primitives": [
        {
          "attributes": {
            "NORMAL": 5,
            "POSITION": 4,
            "TEXCOORD_0": 6
          },
          "indices": 7,
          "material": 1,
          "mode": 4
        }
      ]
    },
    {
      "name": "Plane.001_Material.002_0",
      "primitives": [
        {
          "attributes": {
            "NORMAL": 9,
            "POSITION": 8,
            "TEXCOORD_0": 10
          },
          "indices": 11,
          "material": 0,
          "mode": 4
        }
      ]
    },
    {
      "name": "Plane.001_Material.003_0",
      "primitives": [
        {
          "attributes": {
            "NORMAL": 13,
            "POSITION": 12,
            "TEXCOORD_0": 14
          },
          "indices": 15,
          "material": 2,
          "mode": 4
        }
      ]
    },
    {
      "name": "Plane.002_Material.002_0",
      "primitives": [
        {
          "attributes": {
            "NORMAL": 17,
            "POSITION": 16,
            "TEXCOORD_0": 18
          },
          "indices": 19,
          "material": 0,
          "mode": 4
        }
      ]
    },
    {
      "name": "Plane.002_Material.004_0",
      "primitives": [
        {
          "attributes": {
            "NORMAL": 21,
            "POSITION": 20,
            "TEXCOORD_0": 22
          },
          "indices": 23,
          "material": 3,
          "mode": 4
        }
      ]
    },
    {
      "name": "Plane.003_Material.005_0",
      "primitives": [
        {
          "attributes": {
            "NORMAL": 25,
            "POSITION": 24,
            "TEXCOORD_0": 26
          },
          "indices": 27,
          "material": 4,
          "mode": 4
        }
      ]
    },
    {
      "name": "Plane.003_Material.006_0",
      "primitives": [
        {
          "attributes": {
            "NORMAL": 29,
            "POSITION": 28,
            "TEXCOORD_0": 30
          },
          "indices": 31,
          "material": 5,
          "mode": 4
        }
      ]
    }
  ],
  "nodes": [
    {
      "children": [
        1
      ],
      "name": "RootNode (gltf orientation matrix)",
      "rotation": [
        -0.70710678118654746,
        -0,
        -0,
        0.70710678118654757
      ]
    },
    {
      "children": [
        2
      ],
      "name": "RootNode (model correction matrix)"
    },
    {
      "children": [
        3
      ],
      "matrix": [
        1,
        0,
        0,
        0,
        0,
        0,
        1,
        0,
        0,
        -1,
        0,
        0,
        0,
        0,
        0,
        1
      ],
      "name": "4d1d2e89cdba4e7a9c06622bb5f186e5.fbx"
    },
    {
      "children": [
        4,
        7,
        9,
        12,
        15,
        18
      ],
      "name": "RootNode"
    },
    {
      "children": [
        5
      ],
      "matrix": [
        -29.481329246386029,
        -2.7078977554664125,
        -95.517119101714357,
        0,
        63.98960782614683,
        73.677570286541865,
        -21.839122070417019,
        0,
        70.966062829641658,
        -67.559483093360996,
        -19.988350872876492,
        0,
        90.328201293945312,
        743.31329345703125,
        -153.64398193359375,
        1
      ],
      "name": "Light"
    },
    {
      "children": [
        6
      ],
      "matrix": [
        1,
        0,
        0,
        0,
        0,
        2.2204460492503131e-16,
        1,
        0,
        0,
        -1,
        2.2204460492503131e-16,
        0,
        0,
        0,
        0,
        1
      ],
      "name": ""
    },
    {
      "name": ""
    },
    {
      "children": [
        8
      ],
      "matrix": [
        -65.155832803290963,
        -44.527135765708579,
        -61.417030473735487,
        0,
        -32.40134137821245,
        89.539574512336159,
        -30.542088974418615,
        0,
        68.592054721299746,
        -1.0718647115348782e-05,
        -72.767633623962695,
        0,
        735.88916015625,
        495.8309326171875,
        692.5791015625,
        1
      ],
      "name": "Camera"
    },
    {
      "name": ""
    },
    {
      "children": [
        10,
        11
      ],
      "matrix": [
        297.1417421708727,
        -62.035519797066506,
        15.984105744248684,
        0,
        40.958948992752134,
        175.89789874885469,
        -78.746718849141971,
        0,
        3.4622536195025368,
        40.16341490249625,
        91.514550226967643,
        0,
        89.352729797363281,
        189.17080688476562,
        -17.560104370117188,
        1
      ],
      "name": "Plane"
    },
    {
      "mesh": 0,
      "name": "Plane_Material.002_0"
    },
    {
      "mesh": 1,
      "name": "Plane_Material.001_0"
    },
    {
      "children": [
        13,
        14
      ],
      "matrix": [
        268.02375592581234,
        -135.35861032020381,
        47.311998107041823,
        0,
        92.617761938523429,
        158.00965891057348,
        -72.619900033133035,
        0,
        3.9305385422599524,
        39.81637577493936,
        91.64718810152678,
        0,
        218.83840942382812,
        147.54327392578125,
        1.7487466335296631,
        1
      ],
      "name": "Plane.001"
    },
    {
      "mesh": 2,
      "name": "Plane.001_Material.002_0"
    },
    {
      "mesh": 3,
      "name": "Plane.001_Material.003_0"
    },
    {
      "children": [
        16,
        17
      ],
      "matrix": [
        297.30093728006989,
        51.078699425746315,
        -37.419914530039037,
        0,
        -40.318137758027191,
        174.4778047266999,
        -82.162689021676087,
        0,
        3.8941457625871916,
        43.306057187845752,
        90.052323899068583,
        0,
        -64.28741455078125,
        195.82125854492188,
        -28.328258514404297,
        1
      ],
      "name": "Plane.002"
    },
    {
      "mesh": 4,
      "name": "Plane.002_Material.002_0"
    },
    {
      "mesh": 5,
      "name": "Plane.002_Material.004_0"
    },
    {
      "children": [
        19,
        20
      ],
      "matrix": [
        257.86741329490076,
        140.66879729097568,
        -78.190904045012857,
        0,
        -104.0813307504139,
        152.18901951629672,
        -69.457403811618263,
        0,
        3.555399465252977,
        43.495196941743338,
        89.975154923569889,
        0,
        -173.99954223632812,
        173.65426635742188,
        -20.311918258666992,
        1
      ],
      "name": "Plane.003"
    },
    {
      "mesh": 6,
      "name": "Plane.003_Material.005_0"
    },
    {
      "mesh": 7,
      "name": "Plane.003_Material.006_0"
    }
  ],
  "samplers": [
    {
      "magFilter": 9729,
      "minFilter": 9987,
      "wrapS": 10497,
      "wrapT": 10497
    }
  ],
  "scene": 0,
  "scenes": [
    {
      "name": "OSG_Scene",
      "nodes": [
        0
      ]
    }
  ],
  "textures": [
    {
      "sampler": 0,
      "source": 0
    },
    {
      "sampler": 0,
      "source": 1
    },
    {
      "sampler": 0,
      "source": 2
    },
    {
      "sampler": 0,
      "source": 3
    },
    {
      "sampler": 0,
      "source": 4
    },
    {
      "sampler": 0,
      "source": 5
    },
    {
      "sampler": 0,
      "source": 6
    },
    {
      "sampler": 0,
      "source": 7
    },
    {
      "sampler": 0,
      "source": 8
    },
    {
      "sampler": 0,
      "source": 9
    }
  ]
}

